<svg width="1200" height="618" viewBox="0 0 1200 618" fill="none" xmlns="http://www.w3.org/2000/svg">
<path fill-rule="evenodd" clip-rule="evenodd" d="M1167.7 -163.3L1157.5 -145.6L1167.7 -128L1177.9 -110.3H1200V-108.3H1177.9L1167.7 -90.6L1157.5 -72.9L1167.7 -55.2L1177.9 -37.5H1200V-35.5H1177.9L1167.7 -17.9L1157.5 -0.199997L1167.7 17.5L1177.9 35.2H1200V37.2H1177.9L1167.7 54.9L1157.5 72.5L1167.7 90.2L1177.9 107.9H1200V109.9H1177.9L1167.7 127.6L1157.5 145.3L1167.7 163L1177.9 180.6H1200V182.6H1177.9L1167.7 200.3L1157.5 218L1167.7 235.7L1177.9 253.4H1200V255.4H1177.9L1167.7 273L1157.5 290.7L1167.7 308.4L1177.9 326.1H1200V328.1H1177.9L1167.7 345.8L1157.5 363.5L1167.7 381.1L1177.9 398.8H1200V400.8H1177.9L1167.7 418.5L1157.5 436.2L1167.7 453.9L1177.9 471.5H1200V473.5H1177.9L1167.7 491.2L1157.5 508.9L1167.7 526.6L1177.9 544.3H1200V546.3H1177.9L1167.7 564L1157.5 581.6L1167.7 599.3L1177.9 617H1200V618H1176.2L1166 600.3L1155.8 582.6H1114.9L1094.5 618H1050.2L1035.3 592.2L1029.8 582.6H989L968.6 618H924.3L917.4 606.2L903.8 582.6H863L842.6 618H798.3L777.9 582.6H737L716.6 618H672.3L657.4 592.2L651.9 582.6H611.1L590.7 618H546.4L539.6 606.2L525.9 582.6H485.1L464.7 618H420.4L410.2 600.3L400 582.6H359.1L338.7 618H294.4L288.9 608.5L274 582.6H233.2L212.8 618H168.5L161.7 606.2L148 582.6H107.2L86.8 618H42.5L32.3 600.3L22.1 582.6H0V580.6H22.1L32.3 563L42.5 545.3L32.3 527.6L22.1 509.9H0V507.9H22.1L32.3 490.2L42.5 472.5L32.3 454.9L22.1 437.2H0V435.2H22.1L32.3 417.5L42.5 399.8L32.3 382.1L22.1 364.5H0V362.5H22.1L32.3 344.8L42.5 327.1L32.3 309.4L22.1 291.7H0V289.7H22.1L32.3 272L42.5 254.4L32.3 236.7L22.1 219H0V217H22.1L32.3 199.3L42.5 181.6L32.3 164L22.1 146.3H0V144.3H22.1L32.3 126.6L42.5 108.9L32.3 91.2L22.1 73.5H0V71.5H22.1L32.3 53.9L42.5 36.2L32.3 18.5L22.1 0.800003H0V-1.2H22.1L32.3 -18.9L42.5 -36.5L32.3 -54.2L22.1 -71.9H0V-73.9H22.1L32.3 -91.6L42.5 -109.3L32.3 -127L22.1 -144.6H0V-146.6H22.1L32.3 -164.3L42.5 -182H86.8L107.2 -146.6H148L168.5 -182H212.8L233.2 -146.6H274L288.9 -172.5L294.4 -182H338.7L359.1 -146.6H400L410.2 -164.3L420.4 -182H464.7L485.1 -146.6H525.9L546.4 -182H590.7L611.1 -146.6H651.9L657.4 -156.2L672.3 -182H716.6L737 -146.6H777.9L798.3 -182H842.6L863 -146.6H903.8L924.3 -182H968.6L989 -146.6H1029.8L1035.3 -156.2L1050.2 -182H1094.5L1114.9 -146.6H1155.8L1166 -164.3L1176.2 -182H1200V-181H1177.9L1167.7 -163.3ZM1031.6 -145.6L1052 -110.3H1092.8L1113.2 -145.6L1092.8 -181H1052L1031.6 -145.6ZM840.9 180.7L861.3 145.3L840.9 110H800.1L779.6 145.3L800.1 180.7H840.9ZM840.9 182.7H800L779.6 218.1L800 253.4H840.9L861.3 218.1L840.9 182.7ZM777.9 146.3H737.1L716.6 181.7L737.1 217H777.9L798.3 181.7L777.9 146.3ZM714.9 182.6H674.1L653.7 218L660.5 229.8L674.1 253.3H714.9L735.3 218L714.9 182.6ZM735.3 145.2L714.9 109.8H674.1L653.7 145.2L674.1 180.6H714.9L735.3 145.2ZM651.9 146.2H611.1L590.7 181.5L611.1 216.9H651.9L657.4 207.4L672.3 181.5L657.4 155.6L651.9 146.2ZM588.9 182.6H548.1L542.6 192.1L527.7 218L542.6 243.8L548.1 253.3H588.9L609.3 218L588.9 182.6ZM609.4 145.2L588.9 109.8H548.1L542.6 119.4L527.7 145.2L542.6 171.1L548.1 180.6H588.9L609.4 145.2ZM526 146.2H485.2L464.8 181.5L485.2 216.9H526L546.5 181.5L526 146.2ZM463 182.6H422.1L411.9 200.3L401.7 217.9L411.9 235.6L422.1 253.3H463L483.4 217.9L463 182.6ZM483.4 145.3L463 109.9H422.2L412 127.6L401.8 145.3L412 163L422.2 180.6H463L483.4 145.3ZM400 146.3H359.2L338.8 181.7L359.2 217.1H400L410.2 199.4L420.4 181.7L410.2 164L400 146.3ZM357.4 145.3L337 109.9H296.2L275.8 145.3L296.2 180.7H337L357.4 145.3ZM296.2 182.6L275.7 218L296.2 253.4H337L357.4 218L337 182.6H296.2ZM296.2 255.4L275.8 290.7L296.2 326.1H337L357.5 290.7L337 255.4H296.2ZM359.2 289.7H400.1L410.3 272L420.5 254.4L410.3 236.7L400.1 219H359.2L338.8 254.4L359.2 289.7ZM401.8 290.7L412 308.3L422.2 326H463L483.5 290.7L463 255.3H422.2L412 273L401.8 290.7ZM485.2 289.7H526L546.4 254.3L539.6 242.5L526 219H485.2L464.8 254.3L485.2 289.7ZM527.7 290.7L542.7 316.7L548.2 326.1H589L609.4 290.7L589 255.4H548.2L542.7 264.9L527.7 290.7ZM611.1 289.7H651.9L657.4 280.2L672.3 254.3L657.4 228.5L651.9 219H611.1L590.6 254.3L611.1 289.7ZM653.7 290.7L674.1 326.1H714.9L735.4 290.7L714.9 255.4H674.1L653.7 290.7ZM737.1 289.7H778L798.4 254.3L778 219H737.1L716.7 254.3L737.1 289.7ZM779.7 290.7L800.1 326.1H840.9L861.3 290.7L840.9 255.4H800.1L779.7 290.7ZM863.1 289.7H903.9L924.3 254.3L917.5 242.5L903.9 218.9H863.1L842.7 254.3L863.1 289.7ZM903.9 217L924.3 181.6L903.9 146.3H863.1L842.6 181.6L863.1 217H903.9ZM903.9 144.3L924.3 108.9L917.5 97.1L903.9 73.5H863L842.6 108.9L863 144.3H903.9ZM861.4 72.5L840.9 37.2H800.1L779.7 72.5L800.1 107.9H840.9L861.4 72.5ZM778 73.5H737.2L716.8 108.8L737.2 144.2H778L798.4 108.8L778 73.5ZM735.5 72.5L715 37.2H674.2L653.8 72.5L660.6 84.3L674.2 107.9H715L735.5 72.5ZM652.1 73.5H611.3L590.9 108.9L611.3 144.2H652.1L657.6 134.7L672.6 108.9L657.6 83L652.1 73.5ZM609.6 72.5L589.2 37.2H548.3L542.9 46.7L527.9 72.5L542.8 98.4L548.3 107.9H589.2L609.6 72.5ZM526.2 73.5H485.3L464.9 108.9L485.3 144.2H526.2L546.6 108.9L539.8 97.1L526.2 73.5ZM483.6 72.5L463.2 37.1H422.4L412.2 54.8L402 72.5L412.2 90.2L422.4 107.8H463.2L483.6 72.5ZM400.2 73.5H359.4L339 108.9L359.4 144.3H400.2L410.4 126.6L420.6 108.9L410.4 91.2L400.2 73.5ZM357.6 72.5L337.2 37.2H296.4L276 72.5L296.4 107.9H337.2L357.6 72.5ZM274.2 73.5H233.4L213 108.8L233.4 144.2H274.2L289.1 118.4L294.6 108.8L289.1 99.3L274.2 73.5ZM233.4 146.3L213 181.6L233.4 217H274.2L289.1 191.1L294.6 181.6L289.2 172.1L274.2 146.3H233.4ZM233.4 219L213 254.3L233.4 289.7H274.3L289.2 263.9L294.7 254.3L289.2 244.8L274.3 219H233.4ZM233.4 291.7L212.9 327.1L233.4 362.4H274.2L289.1 336.6L294.6 327.1L289.2 317.7L274.2 291.7H233.4ZM276 363.4L296.4 398.8H337.2L357.6 363.4L337.2 328.1H296.4L276 363.4ZM359.4 362.4H400.2L410.4 344.7L420.6 327L410.4 309.3L400.2 291.6H359.4L339 327L359.4 362.4ZM402 363.4L412.2 381.1L422.4 398.8H463.2L483.6 363.4L463.2 328.1H422.4L412.2 345.7L402 363.4ZM485.4 362.4H526.2L546.6 327.1L526.2 291.7H485.4L464.9 327.1L485.4 362.4ZM528 363.4L542.9 389.2L548.4 398.7H589.2L609.7 363.4L589.2 328H548.4L542.9 337.5L528 363.4ZM611.4 362.4H652.2L657.7 352.9L672.7 327.1L657.7 301.1L652.2 291.7H611.4L591 327.1L611.4 362.4ZM654 363.4L660.8 375.2L674.4 398.7H715.2L735.6 363.4L715.2 328H674.4L654 363.4ZM737.4 362.4H778.2L798.6 327.1L778.2 291.7H737.4L717 327.1L737.4 362.4ZM779.9 363.4L800.3 398.7H841.2L861.6 363.4L841.2 328H800.3L779.9 363.4ZM863.3 362.4H904.2L924.6 327L904.2 291.7H863.3L842.9 327L863.3 362.4ZM905.9 363.4L920.8 389.3L926.3 398.8H967.1L987.6 363.4L967.1 328.1H926.3L920.8 337.6L905.9 363.4ZM967.1 326L987.6 290.7L967.1 255.3H926.3L920.8 264.8L905.9 290.7L920.9 316.6L926.3 326H967.1ZM967.1 253.3L987.5 217.9L967.1 182.6H926.3L920.8 192.1L905.9 217.9L920.8 243.8L926.3 253.3H967.1ZM967.1 180.6L987.5 145.2L967.1 109.8H926.2L920.7 119.4L905.8 145.2L920.8 171.1L926.2 180.6H967.1ZM967.1 107.8L987.5 72.5L967.1 37.1H926.3L920.8 46.6L905.9 72.5L920.8 98.3L926.3 107.8H967.1ZM967.1 35.1L987.5 -0.199997L967.1 -35.6H926.2L920.8 -26.1L905.8 -0.199997L920.7 25.6L926.2 35.1H967.1ZM904.2 0.800003H863.3L842.9 36.1L863.3 71.5H904.2L924.6 36.1L917.8 24.3L904.2 0.800003ZM861.6 -0.199997L841.2 -35.5H800.3L779.9 -0.199997L800.3 35.2H841.2L861.6 -0.199997ZM778.2 0.800003H737.3L716.9 36.2L737.3 71.5H778.2L798.6 36.2L778.2 0.800003ZM735.6 -0.199997L715.2 -35.6H674.4L653.9 -0.199997L660.7 11.5L674.4 35.1H715.2L735.6 -0.199997ZM652.2 0.800003H611.4L590.9 36.2L611.4 71.5H652.2L657.7 62.1L672.6 36.2L657.7 10.3L652.2 0.800003ZM609.6 -0.199997L589.2 -35.5H548.4L542.9 -26.1L528 -0.199997L542.9 25.7L548.4 35.2H589.2L609.6 -0.199997ZM526.2 0.800003H485.4L465 36.2L485.4 71.5H526.2L546.6 36.2L539.8 24.4L526.2 0.800003ZM483.7 -0.199997L463.2 -35.6H422.4L412.2 -17.9L402 -0.199997L412.2 17.5L422.4 35.1H463.2L483.7 -0.199997ZM400.3 0.800003H359.5L339.1 36.2L359.5 71.6H400.3L410.5 53.9L420.8 36.2L410.5 18.5L400.3 0.800003ZM357.8 -0.199997L337.4 -35.5H296.5L276.1 -0.199997L296.5 35.2H337.4L357.8 -0.199997ZM274.4 0.800003H233.5L213.1 36.1L233.5 71.5H274.4L289.3 45.6L294.8 36.1L289.3 26.6L274.4 0.800003ZM231.8 -0.199997L211.4 -35.5H170.5L165.1 -26.1L150.1 -0.199997L165 25.7L170.5 35.2H211.4L231.8 -0.199997ZM170.5 37.1L165.1 46.6L150.1 72.5L165 98.3L170.5 107.9H211.4L231.8 72.5L211.4 37.1H170.5ZM170.5 109.9L165 119.4L150.1 145.2L165 171.1L170.5 180.6H211.3L231.7 145.2L211.3 109.9H170.5ZM170.5 182.6L165 192.1L150.1 218L165 243.8L170.5 253.3H211.4L231.8 218L211.4 182.6H170.5ZM170.5 255.3L165 264.9L150 290.7L165 316.6L170.5 326.1H211.3L231.7 290.7L211.3 255.3H170.5ZM170.5 328.1L165 337.6L150.1 363.4L165 389.3L170.5 398.8H211.3L231.7 363.4L211.3 328.1H170.5ZM170.5 400.8L165 410.3L150.1 436.1L165 462L170.5 471.5H211.4L231.8 436.1L211.4 400.8H170.5ZM233.5 435.1H274.3L289.2 409.3L294.7 399.8L289.2 390.3L274.3 364.4H233.5L213 399.8L233.5 435.1ZM276.1 436.1L296.5 471.4H337.4L357.8 436.1L337.4 400.7H296.5L276.1 436.1ZM359.5 435.1H400.4L410.6 417.4L420.8 399.8L410.6 382.1L400.4 364.4H359.5L339.1 399.8L359.5 435.1ZM402.1 436.1L412.3 453.7L422.5 471.4H463.3L483.8 436.1L463.3 400.7H422.5L412.3 418.4L402.1 436.1ZM485.5 435.1H526.3L546.7 399.7L539.9 387.9L526.3 364.4H485.5L465.1 399.7L485.5 435.1ZM528 436.1L543 462L548.5 471.5H589.3L609.7 436.1L589.3 400.8H548.5L543 410.3L528 436.1ZM611.4 435.1H652.2L657.7 425.6L672.6 399.7L657.7 373.9L652.2 364.4H611.4L590.9 399.7L611.4 435.1ZM654 436.1L660.8 447.9L674.4 471.5H715.2L735.7 436.1L715.2 400.8H674.4L654 436.1ZM737.4 435.1H778.3L798.7 399.7L778.3 364.3H737.4L717 399.7L737.4 435.1ZM780 436.1L800.4 471.5H841.2L861.6 436.1L841.2 400.7H800.4L780 436.1ZM863.4 435.1H904.2L924.6 399.8L917.8 388L904.2 364.4H863.4L843 399.8L863.4 435.1ZM905.9 436.1L920.8 461.9L926.3 471.4H967.2L987.6 436.1L967.2 400.7H926.3L920.8 410.2L905.9 436.1ZM989.3 435.1H1030.2L1035.7 425.6L1050.6 399.8L1035.7 373.9L1030.2 364.4H989.3L968.9 399.8L989.3 435.1ZM1030.2 362.4L1035.7 352.8L1050.6 327L1035.6 301L1030.2 291.6H989.3L968.9 327L989.3 362.4H1030.2ZM1030.2 289.6L1035.7 280.1L1050.6 254.3L1035.7 228.4L1030.2 218.9H989.4L969 254.3L989.4 289.6H1030.2ZM1030.2 216.9L1035.7 207.4L1050.6 181.5L1035.6 155.6L1030.2 146.2H989.3L968.9 181.5L989.3 216.9H1030.2ZM1030.2 144.2L1035.7 134.6L1050.7 108.8L1035.7 83L1030.2 73.4H989.4L969 108.8L989.4 144.2H1030.2ZM1030.2 71.4L1035.7 62L1050.6 36.1L1035.7 10.2L1030.2 0.699997H989.4L969 36.1L989.4 71.4H1030.2ZM1030.2 -1.3L1035.6 -10.8L1050.6 -36.6L1035.7 -62.5L1030.2 -72H989.3L968.9 -36.6L989.3 -1.3H1030.2ZM987.7 -73L967.2 -108.4H926.4L920.9 -98.8L906 -73L920.9 -47.2L926.4 -37.6H967.2L987.7 -73ZM904.3 -72H863.5L843.1 -36.7L863.5 -1.3H904.3L924.8 -36.7L917.9 -48.5L904.3 -72ZM861.8 -73L841.4 -108.4H800.5L780.1 -73L800.5 -37.6H841.4L861.8 -73ZM778.4 -72H737.5L717.1 -36.7L737.5 -1.3H778.4L798.8 -36.7L778.4 -72ZM735.8 -73L715.4 -108.3H674.5L654.1 -73L660.9 -61.2L674.5 -37.6H715.4L735.8 -73ZM652.4 -72H611.5L591.1 -36.6L611.5 -1.3H652.4L657.8 -10.7L672.8 -36.6L657.9 -62.5L652.4 -72ZM609.8 -73L589.4 -108.3H548.6L543.1 -98.8L528.1 -73L543.1 -47.1L548.6 -37.6H589.4L609.8 -73ZM526.4 -72H485.6L465.1 -36.6L485.6 -1.3H526.4L546.8 -36.6L540 -48.4L526.4 -72ZM483.8 -73L463.4 -108.4H422.6L412.4 -90.7L402.2 -73L412.4 -55.4L422.6 -37.7H463.4L483.8 -73ZM400.4 -72H359.6L339.2 -36.6L359.6 -1.3H400.4L410.6 -18.9L420.8 -36.6L410.6 -54.3L400.4 -72ZM357.9 -73L337.4 -108.4H296.6L276.2 -73L296.6 -37.6H337.4L357.9 -73ZM274.5 -72H233.7L213.3 -36.7L233.7 -1.3H274.5L289.5 -27.2L295 -36.7L289.4 -46.2L274.5 -72ZM232 -73L211.6 -108.4H170.7L165.2 -98.9L150.3 -73L165.2 -47.2L170.7 -37.7H211.6L232 -73ZM148.6 -72H107.7L87.3 -36.6L107.7 -1.2H148.6L169 -36.6L162.2 -48.4L148.6 -72ZM107.8 0.699997L87.3 36.1L107.8 71.4H148.6L169 36.1L162.2 24.3L148.6 0.699997H107.8ZM107.8 73.4L87.4 108.8L107.8 144.2H148.6L169 108.8L162.2 97L148.6 73.4H107.8ZM107.8 146.2L87.4 181.5L107.8 216.9H148.6L169 181.5L148.6 146.2H107.8ZM107.8 218.9L87.4 254.3L107.8 289.6H148.6L169.1 254.3L162.3 242.5L148.6 218.9H107.8ZM107.8 291.6L87.4 327L107.8 362.4H148.7L169.1 327L148.7 291.6H107.8ZM107.8 364.4L87.3 399.7L107.8 435.1H148.6L169 399.7L162.2 387.9L148.6 364.4H107.8ZM107.8 437.1L87.4 472.4L107.8 507.8H148.6L169 472.4L162.2 460.7L148.6 437.1H107.8ZM150.4 508.8L165.3 534.8L170.8 544.2H211.6L232 508.8L211.6 473.4H170.8L165.3 483L150.4 508.8ZM233.8 507.8H274.6L289.5 482L295 472.4L289.5 462.9L274.6 437.1H233.8L213.4 472.4L233.8 507.8ZM276.3 508.8L296.7 544.2H337.6L358 508.8L337.6 473.5H296.7L276.3 508.8ZM359.7 507.8H400.6L410.8 490.1L421 472.4L410.8 454.7L400.6 437H359.7L339.3 472.4L359.7 507.8ZM402.3 508.8L412.5 526.5L422.7 544.2H463.6L484 508.8L463.6 473.4H422.7L412.5 491.1L402.3 508.8ZM485.7 507.8H526.5L547 472.5L540.2 460.7L526.5 437.1H485.7L465.3 472.5L485.7 507.8ZM528.3 508.8L543.2 534.7L548.7 544.1H589.5L609.9 508.8L589.5 473.4H548.7L543.2 482.9L528.3 508.8ZM611.7 507.8H652.5L658 498.3L672.9 472.5L658 446.6L652.5 437.1H611.7L591.3 472.5L611.7 507.8ZM654.2 508.8L674.6 544.2H715.5L735.9 508.8L715.5 473.4H674.6L654.2 508.8ZM737.6 507.8H778.5L798.9 472.5L778.5 437.1H737.6L717.2 472.5L737.6 507.8ZM780.2 508.8L800.6 544.1H841.4L861.9 508.8L841.4 473.4H800.6L780.2 508.8ZM863.6 507.8H904.4L924.9 472.4L918 460.7L904.4 437.1H863.6L843.2 472.4L863.6 507.8ZM906.2 508.8L921.1 534.8L926.6 544.2H967.4L987.8 508.8L967.4 473.5H926.6L921.1 483L906.2 508.8ZM989.5 507.8H1030.4L1035.9 498.3L1050.8 472.5L1035.9 446.6L1030.4 437.1H989.5L969.1 472.5L989.5 507.8ZM1032.1 508.8L1052.5 544.1H1093.4L1113.8 508.8L1093.4 473.4H1052.5L1032.1 508.8ZM1093.4 471.4L1113.8 436.1L1093.4 400.7H1052.6L1032.1 436.1L1038.9 447.9L1052.6 471.4H1093.4ZM1093.4 398.7L1113.8 363.4L1093.4 328H1052.5L1032.1 363.4L1038.9 375.1L1052.5 398.7H1093.4ZM1093.4 326L1113.9 290.6L1093.4 255.3H1052.6L1032.2 290.6L1052.6 326H1093.4ZM1093.4 253.3L1113.8 217.9L1093.4 182.5H1052.6L1032.2 217.9L1039 229.7L1052.6 253.3H1093.4ZM1093.4 180.5L1113.8 145.2L1093.4 109.8H1052.6L1032.2 145.2L1052.6 180.5H1093.4ZM1093.4 107.8L1113.8 72.4L1093.4 37.1H1052.6L1032.1 72.4L1038.9 84.2L1052.6 107.8H1093.4ZM1093.4 35.1L1113.8 -0.300003L1093.4 -35.6H1052.5L1032.1 -0.300003L1038.9 11.5L1052.5 35.1H1093.4ZM1093.4 -37.6L1113.9 -73L1093.4 -108.4H1052.6L1032.2 -73L1039 -61.2L1052.6 -37.6H1093.4ZM989.6 -144.7L969.2 -109.4L989.6 -74H1030.4L1035.9 -83.5L1050.9 -109.4L1035.9 -135.3L1030.4 -144.7H989.6ZM906.3 -145.7L921.2 -119.8L926.7 -110.4H967.5L987.9 -145.7L967.5 -181.1H926.7L921.2 -171.6L906.3 -145.7ZM863.7 -144.7L843.3 -109.3L863.7 -73.9H904.5L924.9 -109.3L904.5 -144.7H863.7ZM780.3 -145.7L800.7 -110.3H841.6L862 -145.7L841.6 -181H800.7L780.3 -145.7ZM737.8 -144.7L717.4 -109.4L737.8 -74H778.6L799 -109.4L778.6 -144.7H737.8ZM654.4 -145.7L674.8 -110.4H715.7L736.1 -145.7L715.7 -181.1H674.8L654.4 -145.7ZM611.9 -144.7L591.5 -109.3L611.9 -74H652.7L658.2 -83.5L673.1 -109.3L658.2 -135.2L652.7 -144.7H611.9ZM528.5 -145.7L543.4 -119.8L548.9 -110.3H589.7L610.2 -145.7L589.7 -181.1H548.9L543.4 -171.5L528.5 -145.7ZM486 -144.7L465.5 -109.4L486 -74H526.8L547.2 -109.4L526.8 -144.7H486ZM402.6 -145.7L412.8 -128.1L423 -110.4H463.8L484.2 -145.7L463.8 -181.1H423L412.8 -163.4L402.6 -145.7ZM360 -144.7L339.6 -109.4L360 -74H400.8L411 -91.7L421.3 -109.4L411 -127L400.8 -144.7H360ZM276.6 -145.7L297.1 -110.4H337.9L358.3 -145.7L337.9 -181.1H297.1L276.6 -145.7ZM234 -144.7L213.6 -109.3L234 -73.9H274.8L289.7 -99.8L295.3 -109.3L289.8 -118.8L274.8 -144.7H234ZM150.6 -145.7L165.6 -119.8L171.1 -110.3H211.9L232.3 -145.7L211.9 -181H171.1L165.6 -171.5L150.6 -145.7ZM108 -144.7L87.6 -109.4L108 -74H148.8L169.2 -109.4L148.8 -144.7H108ZM45 -110.4H85.9L106.3 -145.7L85.9 -181.1H45L34.8 -163.4L24.6 -145.7L34.8 -128L45 -110.4ZM45 -37.7H85.8L106.3 -73.1L85.8 -108.4H45L34.8 -90.8L24.6 -73.1L34.8 -55.4L45 -37.7ZM45 35H85.8L106.2 -0.300003L85.8 -35.7H45L34.8 -18L24.6 -0.300003L34.8 17.4L45 35ZM45 107.7H85.8L106.2 72.3L85.8 37H45L34.8 54.6L24.6 72.3L34.8 90L45 107.7ZM45 180.4H85.8L106.2 145.1L85.8 109.7H45L34.7 127.4L24.5 145.1L34.7 162.8L45 180.4ZM45 253.1H85.9L106.3 217.7L85.9 182.4H45L34.8 200L24.6 217.7L34.8 235.4L45 253.1ZM45 325.8H85.8L106.3 290.5L85.8 255.1H45L34.8 272.8L24.6 290.5L34.8 308.1L45 325.8ZM45 398.6H85.8L106.2 363.2L85.8 327.8H45L34.8 345.5L24.6 363.2L34.8 380.9L45 398.6ZM45 471.3H85.8L106.2 435.9L85.8 400.6H45L34.8 418.3L24.6 435.9L34.8 453.6L45 471.3ZM45 544.1H85.8L106.2 508.7L85.8 473.3H45L34.7 491L24.5 508.7L34.7 526.4L45 544.1ZM106.3 581.4L85.9 546.1H45L34.8 563.8L24.6 581.4L34.8 599.1L45 616.8H85.9L106.3 581.4ZM148.8 580.4L169.2 545L148.8 509.7H108L87.6 545L108 580.4H148.8ZM232.2 581.4L211.8 546H171L165.5 555.6L150.5 581.4L165.5 607.2L171 616.8H211.8L232.2 581.4ZM274.8 580.4L289.7 554.5L295.2 545L289.8 535.6L274.8 509.6H233.9L213.5 545L233.9 580.4H274.8ZM358.2 581.4L337.8 546H297L276.6 581.4L297 616.7H337.8L358.2 581.4ZM400.8 580.4L411 562.7L421.2 545.1L411 527.4L400.8 509.7H359.9L339.5 545.1L359.9 580.4H400.8ZM484.2 581.4L463.8 546.1H423L412.8 563.7L402.6 581.4L412.8 599.1L423 616.8H463.8L484.2 581.4ZM526.8 580.4L547.2 545L526.8 509.6H486L465.5 545L486 580.4H526.8ZM610.2 581.4L589.7 546H548.9L543.4 555.5L528.5 581.4L543.4 607.2L548.9 616.7H589.7L610.2 581.4ZM652.8 580.4L658.3 570.9L673.2 545.1L658.2 519.1L652.8 509.7H612L591.6 545.1L612 580.4H652.8ZM736.2 581.4L715.8 546.1H674.9L654.5 581.4L661.3 593.2L674.9 616.8H715.8L736.2 581.4ZM778.7 580.4L799.1 545L778.7 509.7H737.9L717.5 545L737.9 580.4H778.7ZM862.1 581.4L841.7 546H800.8L780.4 581.4L800.8 616.8H841.7L862.1 581.4ZM904.6 580.4L925.1 545L904.6 509.6H863.8L843.4 545L863.8 580.4H904.6ZM988 581.4L967.6 546H926.7L921.2 555.5L906.3 581.4L921.2 607.2L926.7 616.7H967.6L988 581.4ZM1030.5 580.4L1036 570.9L1051 545.1L1036 519.1L1030.5 509.7H989.7L969.3 545.1L989.7 580.4H1030.5ZM1113.9 581.4L1093.5 546.1H1052.7L1032.2 581.4L1039 593.2L1052.7 616.8H1093.5L1113.9 581.4ZM1156.4 509.6H1115.6L1095.2 545L1115.6 580.4H1156.4L1166.7 562.7L1176.9 545L1166.7 527.3L1156.4 509.6ZM1156.4 436.9H1115.5L1095.1 472.3L1115.5 507.6H1156.4L1166.6 490L1176.8 472.3L1166.6 454.6L1156.4 436.9ZM1156.4 364.2H1115.6L1095.1 399.5L1115.6 434.9H1156.4L1166.6 417.2L1176.8 399.5L1166.6 381.9L1156.4 364.2ZM1156.4 291.4H1115.6L1095.2 326.8L1115.6 362.2H1156.4L1166.6 344.5L1176.8 326.8L1166.6 309.1L1156.4 291.4ZM1156.4 218.7H1115.6L1095.2 254L1115.6 289.4H1156.4L1166.6 271.7L1176.8 254L1166.6 236.4L1156.4 218.7ZM1156.4 145.9H1115.6L1095.2 181.3L1115.6 216.7H1156.4L1166.7 199L1176.9 181.3L1166.7 163.6L1156.4 145.9ZM1156.4 73.2H1115.5L1095.1 108.5L1115.5 143.9H1156.4L1166.6 126.2L1176.8 108.5L1166.6 90.9L1156.4 73.2ZM1156.4 0.399994H1115.6L1095.1 35.8L1115.6 71.2H1156.4L1166.6 53.5L1176.8 35.8L1166.6 18.1L1156.4 0.399994ZM1156.4 -72.3H1115.6L1095.2 -36.9L1115.6 -1.60001H1156.4L1166.6 -19.3L1176.8 -36.9L1166.6 -54.6L1156.4 -72.3ZM1156.4 -145.1H1115.6L1095.2 -109.7L1115.6 -74.3H1156.4L1166.6 -92L1176.8 -109.7L1166.6 -127.4L1156.4 -145.1Z" fill="url(#paint0_radial_7_3)" fill-opacity="0.16"/>
<defs>
<radialGradient id="paint0_radial_7_3" cx="0" cy="0" r="1" gradientUnits="userSpaceOnUse" gradientTransform="translate(600 274) rotate(90) scale(381.5 572.25)">
<stop offset="0.252083" stop-color="white"/>
<stop offset="0.434524" stop-color="white" stop-opacity="0.24"/>
<stop offset="0.682122" stop-color="white" stop-opacity="0.08"/>
<stop offset="1" stop-color="white" stop-opacity="0"/>
</radialGradient>
</defs>
</svg>
